<svg width="796" height="514" viewBox="0 0 796 514" fill="none" xmlns="http://www.w3.org/2000/svg">
<g clip-path="url(#clip0_66_3377)">
<path d="M483.212 514C619.497 514 729.978 482.383 729.978 443.381C729.978 404.379 619.497 372.762 483.212 372.762C346.926 372.762 236.445 404.379 236.445 443.381C236.445 482.383 346.926 514 483.212 514Z" fill="#F5F5F5"/>
<path d="M717.995 168.666C717.995 168.666 674.282 212.45 698.959 277.419C723.636 342.389 656.656 450.436 656.656 450.436C656.656 450.436 657.361 450.33 658.708 450.097C748.489 434.222 793.097 331.372 743.173 254.97C724.637 226.567 709.373 193.242 717.995 168.666Z" fill="#2091F9"/>
<path d="M717.995 168.666C717.995 168.666 693.319 222.337 717.995 266.12C742.672 309.904 722.226 432.781 656.656 450.436" stroke="#535461" stroke-width="2" stroke-miterlimit="10"/>
<path d="M795.843 345.757C795.843 345.757 745.961 337.799 741.414 382.578C736.866 427.358 645.527 433.558 645.527 433.558C645.527 433.558 646.12 433.967 647.241 434.702C722.681 484.305 794.8 466.297 783.935 400.43C779.867 375.947 780.191 351.35 795.843 345.757Z" fill="#2091F9"/>
<path opacity="0.2" d="M795.843 345.757C795.843 345.757 745.961 337.799 741.414 382.578C736.866 427.358 645.527 433.558 645.527 433.558C645.527 433.558 646.12 433.967 647.241 434.702C722.681 484.305 794.8 466.297 783.935 400.43C779.867 375.947 780.191 351.35 795.843 345.757Z" fill="#F5F5F5"/>
<path d="M795.844 345.757C795.844 345.757 757.123 354.274 760.303 389.541C763.483 424.808 702.778 467.067 645.5 433.544" stroke="#535461" stroke-width="2" stroke-miterlimit="10"/>
<path opacity="0.2" d="M225.745 0.0563924C220.062 -0.141341 214.239 0.0563921 208.908 2.04785C194.406 7.46432 187.531 25.1826 189.766 40.5281C192.001 55.8736 201.195 69.1994 210.735 81.4094C220.274 93.6194 230.61 105.674 235.841 120.25C238.45 127.531 239.67 135.687 237.019 142.954C232.929 154.161 220.598 160.425 208.76 161.724C196.923 163.024 185.036 160.489 173.156 159.606C168.171 159.253 163.045 159.21 158.35 160.849C153.196 162.635 148.902 166.279 144.954 170.079C129.548 184.979 117.217 205.317 119.212 226.673C121.469 250.881 141.591 270.019 163.63 280.279C170.928 283.683 178.648 286.437 185.071 291.296C201.992 304.106 205.792 328.11 204.107 349.302C202.422 370.495 196.683 391.709 199.877 412.718C203.635 437.152 220.267 459.221 242.701 469.531C262.689 478.712 287.704 478.14 305.451 465.153C314.101 458.797 320.644 450.033 326.334 440.945C334.922 427.233 341.89 412.568 347.098 397.246C349.572 389.965 351.899 382.133 357.673 377.07C361.199 373.956 365.767 372.211 370.287 370.855C383.908 366.773 398.256 365.651 412.004 362.021C425.753 358.391 439.586 351.626 447.059 339.529C457.635 322.361 452.7 300.406 452.749 280.209C452.833 234.194 480.323 192.994 490.469 148.151C493.783 133.491 495.016 117.27 487.613 104.198C482.579 95.279 474.098 88.9233 465.179 83.9799C445.579 73.0764 423.299 68.2249 401.379 63.5005C370.914 56.947 333.92 56.0996 310.308 34.8998C287.648 14.5615 256.647 0.0563924 225.745 0.0563924Z" fill="#2091F9"/>
<g opacity="0.5">
<path opacity="0.5" d="M336.254 178.164C336.252 167.073 334.518 156.05 331.114 145.496L322.654 119.219C322.654 118.781 322.654 118.35 322.654 117.919C322.915 101.077 309.808 92.6732 304.76 93.5842C299.592 94.5163 285.251 87.3132 285.251 87.3132V87.5109C284.268 86.3772 283.381 85.163 282.6 83.8811C285.078 82.0736 287.17 79.7882 288.753 77.1593C290.336 74.5304 291.379 71.6111 291.82 68.5728C292.26 65.5345 292.09 62.4386 291.32 59.467C290.549 56.4955 289.192 53.7083 287.331 51.2693C288.881 50.1028 290.063 48.5142 290.736 46.6932C291.907 43.3953 291.011 39.6313 289.107 36.6935C288.298 35.4672 287.352 34.3371 286.287 33.325C284.675 31.7249 282.914 30.2824 281.028 29.0172C276.325 25.7546 271.157 22.9511 265.517 21.9553C264.541 21.7245 263.524 21.7245 262.548 21.9553C261.701 22.2977 260.895 22.7336 260.144 23.2547C256.281 25.4581 251.472 24.5047 247.016 24.2716C242.56 24.0386 237.146 25.2886 235.735 29.4763C235.298 30.7686 235.327 32.1668 235.03 33.4945C234.325 36.743 231.822 39.264 229.891 41.9688C227.959 44.6735 226.513 48.3245 228.121 51.2622C228.671 52.2509 229.531 53.1619 229.531 54.2918C229.531 55.1039 229.052 55.8313 228.826 56.6081C228.34 58.3735 229.256 60.139 230.666 61.4172C231.274 62.0734 231.989 62.6203 232.781 63.0344C235.016 64.1784 237.59 64.5315 239.867 65.5908C241.004 66.1255 242.047 66.841 242.955 67.7094C244.068 68.8763 244.938 70.2534 245.514 71.7604C246.09 73.2675 246.361 74.8743 246.311 76.4873L246.784 76.5367C246.784 76.678 246.784 76.8122 246.784 76.9534C247.277 77.0099 247.799 77.0593 248.313 77.0805C249.054 78.2776 249.901 79.4051 250.845 80.449C250.685 81.0516 250.504 81.6637 250.302 82.2851C248.645 83.4362 235.094 92.4754 219.682 90.3004C203.233 87.977 193.827 160.008 193.827 160.008C193.218 164.128 192.921 168.287 192.939 172.451C192.869 183.044 195.089 196.907 207.463 194.866L214.041 192.698V228.325C214.041 228.325 214.979 238.085 211.693 244.567C208.408 251.05 222.036 248.748 222.036 248.748C222.036 248.748 222.558 249.292 223.517 250.217L223.214 251.071L223.616 251.481C221.823 257.619 219.406 263.556 216.403 269.199L216.791 269.397C216.544 269.87 216.403 270.103 216.403 270.103C216.403 270.103 221.465 272.695 228.431 276.035C234.029 294.989 246.283 338.886 242.25 347.247L242.363 347.488C243.117 349.055 247.333 358.299 246.48 366.767C245.712 374.337 256.175 408.735 260.081 421.228L258.234 421.602L264.812 445.302L263.401 460.64C263.401 460.64 255.413 482.017 274.21 477.836C293.006 473.655 287.838 456.46 287.838 456.46L288.311 421.602C288.311 421.602 286.499 420.592 284.264 419.625C282.727 415.465 279.378 405.635 279.378 398.835C279.378 390.007 273.265 351.894 273.265 351.894V351.816V351.668V351.626L273.23 351.117V351.033C273.23 350.559 273.152 349.91 273.096 349.119V349.076C272.391 338.773 270.276 303.767 271.82 285.519C273.178 284.592 274.59 283.748 276.05 282.991C280.626 294.573 292.421 325.864 291.667 338.992C290.729 355.234 291.434 342.481 291.667 340.404C291.737 339.762 291.787 340.539 291.808 342.283C291.808 342.601 291.808 342.954 291.808 343.328C291.808 343.702 291.808 344.119 291.808 344.55C291.808 344.981 291.808 345.447 291.808 345.962C291.808 346.207 291.808 346.456 291.808 346.711C291.808 347.219 291.808 347.751 291.808 348.307C291.808 348.584 291.808 348.867 291.808 349.154C291.808 350.567 291.808 352.134 291.758 353.766C291.758 354.09 291.758 354.42 291.758 354.754C291.758 355.75 291.758 356.767 291.709 357.798C291.709 359.21 291.653 360.58 291.625 362C291.554 365.178 291.462 368.391 291.35 371.399C291.35 371.733 291.338 372.065 291.314 372.395C291.291 373.054 291.265 373.699 291.237 374.33C291.209 374.961 291.18 375.577 291.152 376.18C291.124 376.778 291.093 377.359 291.06 377.924C291.025 378.588 290.983 379.224 290.948 379.831L288.395 379.464L287.853 385.339C286.997 394.668 288.201 404.07 291.378 412.881C292.252 415.296 292.929 417.294 293.077 418.008C293.549 420.331 293.077 437.075 293.077 437.075C293.077 437.075 295.897 458.917 309.06 454.729C314.983 452.844 317.859 447.11 319.234 441.361C320.76 434.698 320.191 427.725 317.605 421.397C315.737 416.694 313.826 410.098 315.173 405C317.521 396.172 317.521 383.623 317.521 383.623L316.069 383.418C316.43 382.729 316.758 382.022 317.049 381.3C317.049 381.3 316.576 349.232 320.806 345.051C323.133 342.749 322.922 337.22 322.217 332.7C321.209 326.159 320.973 319.523 321.511 312.927C321.801 309.53 322.217 306.571 322.703 305.519C323.944 303.061 325.185 278.288 319.692 266.368L320.821 266.014L320.644 265.139L320.821 265.082C321.649 267.297 322.59 269.468 323.641 271.586C323.918 271.804 324.237 271.963 324.578 272.052C339.8 269.376 340.414 255.146 339.568 247.378C340.209 247.689 340.562 247.887 340.562 247.887L341.972 227.407C343.417 224.137 343.953 219.964 343.918 215.451C343.981 199.322 336.254 178.164 336.254 178.164ZM319.474 236.376C318.43 227.456 316.985 219.06 316.985 219.06L309.935 193.962V184.824L321.117 226.63L319.474 236.376Z" fill="url(#paint0_linear_66_3377)"/>
</g>
<path d="M287.774 373.468L287.252 379.21C286.429 388.332 287.596 397.525 290.672 406.151C291.511 408.516 292.166 410.466 292.307 411.165C292.759 413.439 292.307 429.787 292.307 429.787C292.307 429.787 295.029 451.135 307.727 447.046C313.438 445.21 316.187 439.596 317.541 433.982C319.009 427.47 318.458 420.666 315.962 414.477C314.157 409.879 312.31 403.418 313.614 398.453C315.884 389.824 315.884 377.564 315.884 377.564L287.774 373.468Z" fill="#5A5773"/>
<path d="M274.172 274.912C274.172 274.912 291.854 318.061 290.945 333.95C290.035 349.839 290.719 337.354 290.945 335.313C291.347 331.676 290.945 374.859 289.584 379.803C289.584 379.803 308.176 393.425 315.431 375.262C315.431 375.262 314.98 343.928 319.055 339.839C321.297 337.594 321.079 332.184 320.416 327.771C319.438 321.386 319.201 314.91 319.711 308.471C319.986 305.151 320.367 302.228 320.86 301.232C322.221 298.506 323.582 267.625 315.417 258.995L274.172 274.912Z" fill="#605D82"/>
<path opacity="0.1" d="M291.855 379.824C293.216 374.831 293.618 331.676 293.216 335.334C292.99 337.375 292.306 349.867 293.216 333.971C294.125 318.075 276.443 274.934 276.443 274.934L316.003 259.694C315.82 259.461 315.629 259.242 315.439 259.037L274.18 274.934C274.18 274.934 291.862 318.082 290.953 333.971C290.043 349.86 290.727 337.375 290.953 335.334C291.355 331.697 290.953 374.881 289.592 379.824C289.592 379.824 297.016 385.262 304.313 384.683C297.82 384.195 291.855 379.824 291.855 379.824Z" fill="black"/>
<path d="M258.754 414.794L265.099 437.957L263.739 452.943C263.739 452.943 256.032 473.832 274.166 469.743C292.3 465.654 287.315 448.854 287.315 448.854L287.767 414.794C287.767 414.794 280.512 410.706 277.339 411.165C274.166 411.624 258.754 414.794 258.754 414.794Z" fill="#5A5773"/>
<path d="M227.473 264.016C227.473 264.016 248.328 331.683 243.343 342.128C243.343 342.128 248.328 352.12 247.425 361.195C246.523 370.269 261.935 418.869 261.935 418.869L284.61 414.78C284.61 414.78 279.167 401.158 279.167 392.528C279.167 383.899 273.272 346.626 273.272 346.626C273.272 346.626 268.288 278.5 274.182 271.233L227.473 264.016Z" fill="#605D82"/>
<g opacity="0.1">
<path opacity="0.1" d="M272.421 276.77C268.663 292.193 272.816 348.949 272.816 348.949C272.816 348.949 278.71 386.187 278.71 394.852C278.71 401.44 281.876 410.932 283.378 415.056L284.604 414.837C284.604 414.837 279.162 401.214 279.162 392.585C279.162 383.955 273.267 346.683 273.267 346.683C273.267 346.683 269.474 294.813 272.421 276.77Z" fill="black"/>
<path opacity="0.1" d="M243.344 342.128L243.457 342.361C243.492 342.128 243.527 341.881 243.548 341.655C243.488 341.816 243.42 341.974 243.344 342.128Z" fill="black"/>
<path opacity="0.1" d="M273.153 273.465C273.359 272.681 273.705 271.942 274.175 271.283L227.473 264.016C227.473 264.016 227.748 264.899 228.22 266.474L273.153 273.465Z" fill="black"/>
</g>
<path d="M336.288 239.49C336.288 239.49 343.092 264.913 322.688 268.557C322.357 268.471 322.047 268.317 321.778 268.105C321.778 268.105 309.99 244.942 319.057 235.86L336.288 239.49Z" fill="#FAC3CA"/>
<path d="M252.861 70.5625C252.861 70.5625 254.222 89.6296 239.261 98.7183C224.3 107.807 270.988 132.778 270.988 132.778L295.474 93.7185C295.474 93.7185 285.054 95.0673 278.708 76.9182L252.861 70.5625Z" fill="#FAC3CA"/>
<path opacity="0.1" d="M242.882 100.067C242.882 100.067 266.008 148.208 286.863 102.793L319.056 262.646C319.056 262.646 269.174 278.09 268.729 285.357C268.285 292.624 218.41 266.742 218.41 266.742C218.41 266.742 229.289 246.757 226.575 234.497C223.86 222.238 242.882 100.067 242.882 100.067Z" fill="black"/>
<path d="M242.882 99.156C242.882 99.156 266.008 147.297 286.863 101.882L319.056 261.742C319.056 261.742 269.174 277.186 268.729 284.453C268.285 291.72 218.41 265.831 218.41 265.831C218.41 265.831 229.289 245.846 226.575 233.586C223.86 221.327 242.882 99.156 242.882 99.156Z" fill="#E1E7EF"/>
<path d="M265.56 427.513C265.56 427.513 259.666 414.343 273.266 414.343C286.866 414.343 284.603 426.15 284.603 426.15L265.56 427.513Z" fill="#5A5773"/>
<path d="M296.392 393.446C296.392 393.446 290.949 379.365 304.556 378.913C318.163 378.461 311.36 391.624 311.36 391.624L296.392 393.446Z" fill="#5A5773"/>
<path opacity="0.1" d="M284.828 88.9233C284.828 88.9233 298.654 95.9852 303.646 95.0531C308.638 94.1209 321.78 102.772 320.877 120.031L329.07 145.779C332.347 156.103 334.012 166.872 334.005 177.705C334.005 177.705 345.794 210.402 339.448 224.935L338.087 244.921C338.087 244.921 327.66 239.017 316.774 240.832L319.516 224.512L307.249 178.179L286.845 128.675L284.828 88.9233Z" fill="black"/>
<path d="M284.828 88.0264C284.828 88.0264 298.654 95.0883 303.646 94.1561C308.638 93.2239 321.78 101.875 320.877 119.134L329.07 144.882C332.347 155.206 334.012 165.975 334.005 176.809C334.005 176.809 345.794 209.505 339.448 224.038L338.087 244.024C338.087 244.024 327.66 238.12 316.774 239.935L319.495 223.587L307.249 177.268L286.866 127.764L284.828 88.0264Z" fill="#67647E"/>
<path opacity="0.1" d="M307.728 143.208V194.527L314.532 219.053C314.532 219.053 319.065 245.846 317.704 254.023C316.344 262.201 294.579 264.016 288.685 257.201C282.791 250.387 285.963 192.232 285.963 192.232L284.828 107.101L285.738 104.375L307.728 143.208Z" fill="black"/>
<path d="M308.658 140.941V192.26L315.461 216.786C315.461 216.786 319.995 243.579 318.634 251.757C317.273 259.934 295.509 261.749 289.614 254.935C283.72 248.12 286.893 189.965 286.893 189.965L285.758 104.813L308.658 140.941Z" fill="#67647E"/>
<path opacity="0.1" d="M217.27 183.63L231.779 228.827L224.976 248.127C224.976 248.127 257.168 282.186 277.572 265.838C277.572 265.838 279.842 196.349 275.302 180.001C270.761 163.652 249.004 108.676 249.004 108.676L244.498 94.1633L220.47 107.786L217.27 183.63Z" fill="black"/>
<path d="M216.133 181.356V225.846C216.133 225.846 217.043 235.387 213.863 241.743C210.683 248.098 223.839 245.832 223.839 245.832C223.839 245.832 256.032 279.891 276.436 263.543C276.436 263.543 278.706 194.054 274.166 177.705C269.625 161.357 247.867 106.38 247.867 106.38L243.334 91.8469L219.306 105.469L216.133 181.356Z" fill="#67647E"/>
<path opacity="0.1" d="M251.273 83.9448C251.273 83.9448 237.447 94.1634 221.577 91.8895C205.706 89.6155 196.639 160.016 196.639 160.016C196.639 160.016 190.745 196.349 209.788 193.171L251.957 179.09C251.957 179.09 242.89 169.549 244.251 157.29L223.84 165.46L224.756 126.408L251.273 83.9448Z" fill="black"/>
<path opacity="0.1" d="M197.541 159.105C197.541 159.105 191.647 195.438 210.69 192.26L252.859 178.179C252.859 178.179 243.792 168.645 245.153 156.379L224.756 164.556L197.541 159.105Z" fill="black"/>
<path d="M244.152 161.166C244.152 161.166 258.303 142.53 268.723 151.478C279.144 160.425 247.889 176.823 247.889 176.823L244.152 161.166Z" fill="#FAC3CA"/>
<path d="M251.273 83.0337C251.273 83.0337 237.447 93.2523 221.577 90.9783C205.706 88.7044 196.639 159.104 196.639 159.104C196.639 159.104 190.745 195.438 209.788 192.26L251.957 178.179C251.957 178.179 242.89 168.638 244.251 156.379L223.84 164.556L224.756 125.497L247.882 106.43L251.273 83.0337Z" fill="#67647E"/>
<path opacity="0.1" d="M279.159 77.8081L253.312 71.4524C253.312 71.4524 254.658 72.9778 253.086 78.9451C257.246 83.726 262.357 90.0746 269.182 90.0746C274.066 90.0838 278.821 88.5052 282.733 85.5762C281.273 83.1193 280.075 80.5157 279.159 77.8081Z" fill="black"/>
<path d="M268.729 89.1706C281.252 89.1706 291.403 79.0026 291.403 66.4596C291.403 53.9166 281.252 43.7485 268.729 43.7485C256.206 43.7485 246.055 53.9166 246.055 66.4596C246.055 79.0026 256.206 89.1706 268.729 89.1706Z" fill="#FAC3CA"/>
<path opacity="0.1" d="M277.325 56.601C282.585 55.7041 288.367 53.3666 290.129 48.3244C291.257 45.0972 290.397 41.425 288.557 38.5508C286.717 35.6766 284.009 33.4662 281.217 31.4889C276.684 28.2969 271.685 25.5569 266.228 24.5965C265.287 24.3712 264.306 24.3712 263.366 24.5965C262.547 24.9319 261.769 25.3583 261.046 25.8676C257.316 28.0215 252.677 27.0893 248.355 26.8633C244.033 26.6374 238.851 27.8591 237.49 31.9479C237.067 33.212 237.096 34.5749 236.785 35.8743C236.08 39.0522 233.69 41.5238 231.85 44.1721C230.01 46.8203 228.593 50.4007 230.144 53.2537C230.673 54.2211 231.554 55.1109 231.554 56.2126C231.418 56.9956 231.181 57.7576 230.849 58.4795C230.207 60.824 232.076 63.1897 234.233 64.3055C236.39 65.4213 238.872 65.7673 241.072 66.8054C243.131 67.8231 244.855 69.4116 246.038 71.3821C247.222 73.3526 247.816 75.6222 247.749 77.9208C249.751 78.1539 252.085 78.2739 253.438 76.7768C254.045 76.1059 254.341 75.2091 254.891 74.4958C255.596 73.5637 256.696 73.0128 257.598 72.2643C262.343 68.359 258.973 62.9638 261.659 58.7549C263.069 56.5869 265.311 57.2507 267.582 57.286C270.844 57.3624 274.106 57.1331 277.325 56.601Z" fill="black"/>
<path d="M276.872 56.1491C282.132 55.2522 287.913 52.9147 289.676 47.8725C290.804 44.6453 289.944 40.9731 288.104 38.0989C286.264 35.2247 283.556 33.0143 280.764 31.037C276.231 27.845 271.232 25.105 265.775 24.1446C264.834 23.9193 263.853 23.9193 262.912 24.1446C262.094 24.48 261.316 24.9064 260.593 25.4157C256.863 27.5696 252.224 26.6374 247.902 26.4114C243.58 26.1855 238.398 27.4072 237.037 31.496C236.614 32.7601 236.642 34.123 236.332 35.4224C235.627 38.6003 233.237 41.0719 231.397 43.7202C229.557 46.3684 228.14 49.9488 229.691 52.8018C230.219 53.7692 231.101 54.659 231.101 55.7607C230.965 56.5437 230.728 57.3057 230.396 58.0276C229.754 60.3721 231.622 62.7378 233.78 63.8536C235.937 64.9694 238.419 65.3154 240.619 66.3535C242.686 67.3701 244.417 68.9618 245.605 70.9381C246.793 72.9143 247.387 75.1915 247.317 77.4972C249.319 77.7302 251.653 77.8503 253.007 76.3532C253.613 75.6823 253.909 74.7854 254.459 74.0722C255.164 73.14 256.264 72.5892 257.166 71.8406C261.911 67.9354 258.541 62.5401 261.227 58.3312C262.637 56.1632 264.88 56.827 267.15 56.8623C270.406 56.9281 273.661 56.6894 276.872 56.1491Z" fill="#4A4347"/>
<path opacity="0.1" d="M304.32 132.538C304.32 132.538 309.305 158.426 307.042 168.419C305.659 174.232 305.864 180.311 307.634 186.017" fill="black"/>
<path opacity="0.1" d="M223.74 143.434C223.74 143.434 221.569 160.693 225.186 164.323L223.74 143.434Z" fill="black"/>
<path d="M350.347 356.131C350.627 356.131 350.896 356.02 351.094 355.821C351.293 355.622 351.404 355.353 351.404 355.072C351.404 354.791 351.293 354.522 351.094 354.323C350.896 354.124 350.627 354.013 350.347 354.013C350.066 354.013 349.797 354.124 349.599 354.323C349.4 354.522 349.289 354.791 349.289 355.072C349.289 355.353 349.4 355.622 349.599 355.821C349.797 356.02 350.066 356.131 350.347 356.131Z" fill="black"/>
<g opacity="0.5">
<path opacity="0.5" d="M675.986 232.725V232.139L483.621 83.9802C483.5 83.8901 483.353 83.8416 483.202 83.8416C483.051 83.8416 482.904 83.8901 482.782 83.9802L290.41 232.139V461.792H290.777V462.159H676.36V232.506L675.986 232.725Z" fill="url(#paint1_linear_66_3377)"/>
</g>
<path d="M669.347 455.386H297.082V233.643L483.214 90.2864L669.347 233.643V455.386Z" fill="white"/>
<path d="M655.949 442.244H310.477V236.46L483.213 103.421L655.949 236.46V442.244Z" fill="#E0E0E0"/>
<path d="M541.816 100.347L331.078 155.683L401.343 424.144L612.082 368.807L541.816 100.347Z" fill="#2091F9"/>
<path d="M593.199 141.132H375.34V418.665H593.199V141.132Z" fill="#F5F5F5"/>
<path opacity="0.05" d="M298.844 233.996L484.976 344.868L298.844 455.739V233.996Z" fill="black"/>
<path d="M297.434 233.996L483.566 344.868L297.434 455.739V233.996Z" fill="white"/>
<path opacity="0.05" d="M668.289 233.996L482.156 344.868L668.289 455.739V233.996Z" fill="black"/>
<path d="M669.699 233.996L483.566 344.868L669.699 455.739V233.996Z" fill="white"/>
<path opacity="0.05" d="M297.434 452.208L483.566 306.733L669.698 452.208H297.434Z" fill="black"/>
<path d="M297.434 455.739L483.566 310.264L669.698 455.739H297.434Z" fill="white"/>
<path d="M335.258 472.582C335.258 472.582 325.909 440.804 337.014 417.4C341.732 407.618 343.154 396.566 341.068 385.904C340.038 380.852 338.549 375.904 336.619 371.124" stroke="#535461" stroke-width="2" stroke-miterlimit="10"/>
<path d="M343.523 356.336C343.523 360.234 336.472 371.526 336.472 371.526C336.472 371.526 329.422 360.227 329.422 356.336C329.422 354.463 330.165 352.667 331.487 351.343C332.809 350.018 334.602 349.274 336.472 349.274C338.342 349.274 340.136 350.018 341.458 351.343C342.78 352.667 343.523 354.463 343.523 356.336Z" fill="#6C63FF"/>
<path d="M355.192 377.917C353.077 381.187 341.035 386.837 341.035 386.837C341.035 386.837 341.254 373.518 343.369 370.248C344.423 368.769 346.006 367.755 347.789 367.415C349.571 367.075 351.416 367.437 352.939 368.425C354.462 369.413 355.546 370.951 355.965 372.719C356.385 374.487 356.108 376.349 355.192 377.917Z" fill="#6C63FF"/>
<path d="M354.654 414.787C351.178 416.539 337.938 415.331 337.938 415.331C337.938 415.331 344.84 403.947 348.309 402.196C349.139 401.731 350.055 401.439 351 401.337C351.946 401.236 352.903 401.327 353.813 401.606C354.722 401.884 355.567 402.345 356.294 402.958C357.022 403.572 357.617 404.328 358.046 405.178C358.474 406.029 358.727 406.958 358.787 407.909C358.848 408.86 358.716 409.813 358.399 410.711C358.082 411.61 357.587 412.435 356.943 413.136C356.3 413.838 355.521 414.402 354.654 414.795V414.787Z" fill="#6C63FF"/>
<path d="M347.999 442.604C344.868 444.921 331.613 445.966 331.613 445.966C331.613 445.966 336.492 433.579 339.623 431.263C341.129 430.256 342.964 429.869 344.748 430.181C346.531 430.492 348.127 431.48 349.204 432.938C350.281 434.396 350.756 436.213 350.532 438.012C350.307 439.812 349.4 441.456 347.999 442.604Z" fill="#6C63FF"/>
<path d="M326.222 387.585C329.042 390.297 342.008 393.114 342.008 393.114C342.008 393.114 338.828 380.184 336.036 377.472C334.678 376.27 332.91 375.638 331.099 375.707C329.288 375.776 327.573 376.541 326.31 377.843C325.047 379.145 324.333 380.885 324.317 382.7C324.3 384.515 324.983 386.267 326.222 387.592V387.585Z" fill="#6C63FF"/>
<path d="M318.846 420.218C322.322 421.969 335.563 420.762 335.563 420.762C335.563 420.762 328.661 409.378 325.192 407.627C323.535 406.877 321.654 406.797 319.94 407.404C318.226 408.01 316.813 409.256 315.994 410.881C315.175 412.507 315.015 414.386 315.546 416.127C316.078 417.868 317.26 419.336 318.846 420.225V420.218Z" fill="#6C63FF"/>
<path d="M316.024 452.915C319.155 455.231 332.41 456.276 332.41 456.276C332.41 456.276 327.531 443.89 324.4 441.573C323.661 440.968 322.807 440.519 321.89 440.254C320.972 439.99 320.011 439.914 319.064 440.033C318.116 440.151 317.203 440.461 316.379 440.944C315.554 441.426 314.837 442.072 314.269 442.84C313.701 443.609 313.295 444.485 313.076 445.416C312.856 446.347 312.828 447.312 312.992 448.254C313.156 449.196 313.509 450.095 314.031 450.896C314.552 451.697 315.23 452.384 316.024 452.915Z" fill="#6C63FF"/>
<path opacity="0.5" d="M475.457 153.844H388.031V160.905H475.457V153.844Z" fill="#6C63FF"/>
<path opacity="0.5" d="M576.984 182.091H388.031V189.153H576.984V182.091Z" fill="#6C63FF"/>
<path opacity="0.5" d="M576.984 200.452H388.031V207.514H576.984V200.452Z" fill="#6C63FF"/>
<path opacity="0.4" d="M576.984 218.813H388.031V225.875H576.984V218.813Z" fill="#6C63FF"/>
<path opacity="0.4" d="M576.984 237.174H388.031V244.236H576.984V237.174Z" fill="#6C63FF"/>
<path opacity="0.3" d="M495.903 255.535H388.031V262.597H495.903V255.535Z" fill="#6C63FF"/>
<path opacity="0.3" d="M535.386 273.896H388.031V280.957H535.386V273.896Z" fill="#6C63FF"/>
</g>
<defs>
<linearGradient id="paint0_linear_66_3377" x1="192.946" y1="250.118" x2="343.84" y2="250.118" gradientUnits="userSpaceOnUse">
<stop stop-color="#808080" stop-opacity="0.25"/>
<stop offset="0.54" stop-color="#808080" stop-opacity="0.12"/>
<stop offset="1" stop-color="#808080" stop-opacity="0.1"/>
</linearGradient>
<linearGradient id="paint1_linear_66_3377" x1="246075" y1="280247" x2="246075" y2="77563.2" gradientUnits="userSpaceOnUse">
<stop stop-color="#808080" stop-opacity="0.25"/>
<stop offset="0.54" stop-color="#808080" stop-opacity="0.12"/>
<stop offset="1" stop-color="#808080" stop-opacity="0.1"/>
</linearGradient>
<clipPath id="clip0_66_3377">
<rect width="677" height="514" fill="white" transform="translate(119)"/>
</clipPath>
</defs>
</svg>
